<mxfile host="app.diagrams.net" modified="2021-09-01T09:10:32.333Z" agent="5.0 (Macintosh; Intel Mac OS X 10_15_6) AppleWebKit/537.36 (KHTML, like Gecko) Chrome/92.0.4515.131 Safari/537.36" etag="xza7p5C4jKdTL8RHCA0Y" version="15.0.4" type="github">
  <diagram id="jo_JlupRxi6ArpTCyRoQ" name="Page-1">
    <mxGraphModel dx="874" dy="591" grid="0" gridSize="10" guides="1" tooltips="1" connect="1" arrows="1" fold="1" page="1" pageScale="1" pageWidth="827" pageHeight="1169" math="0" shadow="0">
      <root>
        <mxCell id="0" />
        <mxCell id="1" parent="0" />
        <mxCell id="ocm4hejbXnsevYCb4xJW-1" value="&lt;font style=&quot;font-size: 18px&quot;&gt;zztrade&lt;/font&gt;" style="ellipse;whiteSpace=wrap;html=1;" vertex="1" parent="1">
          <mxGeometry x="160" y="310" width="90" height="60" as="geometry" />
        </mxCell>
        <mxCell id="ocm4hejbXnsevYCb4xJW-3" value="" style="shape=curlyBracket;whiteSpace=wrap;html=1;rounded=1;strokeWidth=2;" vertex="1" parent="1">
          <mxGeometry x="250" y="280" width="20" height="120" as="geometry" />
        </mxCell>
        <mxCell id="ocm4hejbXnsevYCb4xJW-5" value="&lt;font style=&quot;font-size: 18px&quot;&gt;X&lt;/font&gt;" style="text;html=1;align=center;verticalAlign=middle;resizable=0;points=[];autosize=1;strokeColor=none;" vertex="1" parent="1">
          <mxGeometry x="270" y="270" width="30" height="20" as="geometry" />
        </mxCell>
        <mxCell id="ocm4hejbXnsevYCb4xJW-6" value="&lt;font style=&quot;font-size: 18px&quot;&gt;jackson-core:2.8.10&lt;/font&gt;" style="text;html=1;align=center;verticalAlign=middle;resizable=0;points=[];autosize=1;strokeColor=none;" vertex="1" parent="1">
          <mxGeometry x="350" y="270" width="170" height="20" as="geometry" />
        </mxCell>
        <mxCell id="ocm4hejbXnsevYCb4xJW-7" value="" style="endArrow=classic;html=1;exitX=1.1;exitY=0.45;exitDx=0;exitDy=0;exitPerimeter=0;strokeWidth=2;" edge="1" parent="1">
          <mxGeometry width="50" height="50" relative="1" as="geometry">
            <mxPoint x="298" y="280" as="sourcePoint" />
            <mxPoint x="350" y="280.37956204379566" as="targetPoint" />
          </mxGeometry>
        </mxCell>
        <mxCell id="ocm4hejbXnsevYCb4xJW-9" value="&lt;font style=&quot;font-size: 18px&quot;&gt;Y&lt;/font&gt;" style="text;html=1;align=center;verticalAlign=middle;resizable=0;points=[];autosize=1;strokeColor=none;" vertex="1" parent="1">
          <mxGeometry x="270" y="390" width="30" height="20" as="geometry" />
        </mxCell>
        <mxCell id="ocm4hejbXnsevYCb4xJW-10" value="&lt;font style=&quot;font-size: 18px&quot;&gt;jackson-datatype-guava:2.12.3&lt;/font&gt;" style="text;html=1;align=center;verticalAlign=middle;resizable=0;points=[];autosize=1;strokeColor=none;" vertex="1" parent="1">
          <mxGeometry x="350" y="390" width="260" height="20" as="geometry" />
        </mxCell>
        <mxCell id="ocm4hejbXnsevYCb4xJW-11" value="" style="endArrow=classic;html=1;exitX=1.1;exitY=0.45;exitDx=0;exitDy=0;exitPerimeter=0;strokeWidth=2;" edge="1" parent="1">
          <mxGeometry width="50" height="50" relative="1" as="geometry">
            <mxPoint x="298" y="400" as="sourcePoint" />
            <mxPoint x="350" y="400.37956204379566" as="targetPoint" />
          </mxGeometry>
        </mxCell>
      </root>
    </mxGraphModel>
  </diagram>
</mxfile>
